<?xml version="1.0" standalone="no"?>
<!DOCTYPE svg PUBLIC "-//W3C//DTD SVG 20010904//EN"
 "http://www.w3.org/TR/2001/REC-SVG-20010904/DTD/svg10.dtd">
<svg version="1.0" xmlns="http://www.w3.org/2000/svg"
 width="1361.000000pt" height="1361.000000pt" viewBox="0 0 1361.000000 1361.000000"
 preserveAspectRatio="xMidYMid meet">
<metadata>
Created by potrace 1.14, written by Peter Selinger 2001-2017
</metadata>
<g transform="translate(0.000000,1361.000000) scale(0.100000,-0.100000)"
fill="#000000" stroke="none">
<path d="M733 13413 c-68 -44 -105 -131 -128 -303 -3 -25 -10 -70 -15 -100 -5
-30 -12 -77 -15 -104 -3 -27 -8 -52 -10 -55 -2 -4 -6 -33 -9 -66 -4 -33 -9
-67 -11 -75 -2 -8 -6 -35 -9 -60 -4 -25 -8 -56 -11 -70 -2 -14 -11 -68 -20
-120 -9 -52 -18 -106 -21 -120 -2 -14 -6 -38 -9 -55 -19 -107 -72 -326 -100
-411 -10 -27 -39 -94 -65 -149 -26 -55 -57 -129 -69 -165 -21 -68 -76 -283
-86 -335 -3 -16 -16 -91 -29 -165 -14 -74 -28 -157 -32 -185 -3 -27 -8 -59
-10 -70 -2 -11 -9 -58 -14 -105 -23 -187 -27 -228 -35 -320 -3 -41 -8 -88 -10
-105 -27 -211 -26 -912 1 -1075 2 -14 11 -72 19 -130 9 -58 20 -130 25 -160 5
-30 11 -71 14 -90 3 -19 14 -87 25 -150 11 -63 22 -131 25 -150 3 -19 8 -46
10 -60 3 -14 7 -41 10 -60 3 -19 12 -73 20 -120 8 -47 18 -105 21 -130 4 -24
8 -47 10 -50 1 -3 6 -32 9 -65 4 -33 9 -67 11 -75 3 -8 7 -31 9 -50 3 -19 16
-114 30 -210 13 -96 27 -200 31 -230 3 -30 8 -71 10 -90 8 -69 15 -187 20
-340 3 -85 8 -177 10 -205 14 -146 17 -179 31 -275 93 -648 347 -1212 793
-1755 207 -251 426 -472 766 -770 171 -151 230 -229 339 -450 88 -179 170
-453 192 -640 4 -33 8 -73 10 -90 5 -44 5 -296 0 -325 -3 -14 -7 -43 -10 -65
-10 -70 -16 -98 -41 -176 -24 -79 -74 -191 -88 -197 -4 -2 -7 -8 -7 -13 0 -20
-82 -118 -147 -175 -147 -129 -171 -152 -251 -239 -95 -103 -134 -161 -149
-222 -24 -96 13 -225 80 -275 17 -14 66 -42 107 -64 43 -22 100 -63 134 -97
l58 -58 -4 -52 c-2 -29 -17 -79 -32 -112 -84 -178 -101 -275 -67 -366 55 -145
220 -229 461 -235 340 -8 652 141 796 381 20 32 54 116 75 185 68 213 87 249
213 406 112 140 208 213 279 214 47 0 74 -41 118 -184 157 -512 267 -695 489
-819 148 -82 385 -104 669 -61 33 5 366 70 401 79 252 60 369 85 474 101 21 3
48 8 60 10 85 16 260 30 372 28 245 -4 453 -50 679 -152 324 -146 586 -130
865 54 247 163 562 590 695 944 43 114 55 124 167 126 107 3 177 -10 473 -90
272 -73 354 -91 505 -111 25 -3 56 -8 70 -10 14 -2 63 -7 110 -10 47 -4 103
-8 125 -10 50 -5 491 -6 526 -1 14 2 70 7 123 11 54 3 105 8 114 10 9 1 40 6
67 9 77 10 138 18 160 22 10 2 35 6 55 9 20 3 45 7 55 9 11 3 65 14 120 25
512 104 1041 316 1441 577 78 51 268 189 301 219 6 5 37 32 70 60 75 64 206
194 273 270 83 94 127 213 149 395 9 81 7 392 -3 450 -4 19 -11 64 -18 99 -23
131 -37 156 -170 286 -68 67 -152 145 -188 175 -36 30 -67 57 -70 60 -36 37
-208 149 -270 177 -81 36 -104 44 -166 59 -144 33 -315 11 -469 -60 -115 -53
-161 -130 -157 -260 4 -121 47 -238 148 -401 114 -184 122 -209 83 -259 -11
-14 -53 -41 -92 -60 -71 -35 -275 -98 -352 -110 -22 -4 -56 -11 -75 -16 -19
-5 -51 -12 -70 -15 -19 -3 -60 -10 -90 -15 -30 -5 -73 -12 -95 -15 -23 -3 -51
-7 -64 -10 -13 -2 -49 -7 -80 -10 -31 -4 -67 -8 -81 -10 -14 -2 -52 -7 -85
-10 -33 -3 -71 -8 -85 -10 -152 -24 -471 -24 -590 0 -14 3 -42 7 -62 10 -117
15 -433 96 -523 134 -11 5 -36 14 -55 21 -19 7 -44 16 -55 20 -340 141 -539
276 -638 432 -53 83 -57 99 -72 333 -3 50 -8 110 -10 135 -2 25 -7 79 -10 120
-3 41 -8 86 -10 100 -2 14 -6 52 -10 85 -13 127 -16 152 -26 230 -6 44 -12 91
-14 105 -7 55 -26 188 -30 210 -3 13 -7 42 -10 65 -4 22 -13 78 -21 125 -8 47
-17 101 -20 120 -8 48 -58 295 -84 410 -12 52 -26 114 -31 138 -9 44 -67 271
-96 372 -219 782 -517 1447 -879 1967 -73 104 -201 270 -249 323 -18 19 -61
66 -96 104 -433 468 -958 745 -1519 803 -139 14 -415 8 -555 -12 -84 -12 -246
-46 -341 -71 -196 -52 -313 -50 -423 6 -143 72 -240 258 -269 518 -14 134 -7
619 13 767 2 17 7 57 10 90 9 89 14 136 20 175 5 37 11 85 20 160 10 88 27
211 31 234 2 11 6 42 9 70 3 28 8 62 10 76 2 14 7 43 9 65 3 22 10 74 16 115
22 159 45 347 55 450 2 25 7 70 10 100 12 128 16 215 16 380 0 96 -2 184 -4
195 -3 11 -8 46 -11 78 -4 33 -11 69 -15 80 -5 12 -9 27 -10 32 -5 45 -39 111
-76 149 -34 36 -52 46 -89 51 -84 13 -186 -15 -339 -91 -151 -74 -282 -191
-507 -449 -156 -180 -256 -280 -308 -308 -80 -43 -176 -57 -357 -53 -88 3
-176 7 -195 10 -155 24 -159 24 -220 37 -30 6 -71 13 -90 16 -59 9 -384 100
-457 128 -132 51 -190 92 -328 230 -110 109 -159 170 -346 430 -184 255 -375
462 -447 483 -60 18 -94 15 -139 -15z"/>
</g>
</svg>
